<?xml version="1.0" encoding="UTF-8"?><!DOCTYPE svg PUBLIC "-//W3C//DTD SVG 1.1//EN" "http://www.w3.org/Graphics/SVG/1.1/DTD/svg11.dtd"><svg xmlns="http://www.w3.org/2000/svg" xmlns:xlink="http://www.w3.org/1999/xlink" version="1.1" width="24" height="24" viewBox="0 0 24 24">
<path d="M19.7291654,6.24999998 C19.548608,6.08333333 19.3402774,6 19.1041654,6 C18.8680534,6 18.6597228,6.08333333 18.4791655,6.24999998 L9.33333422,15.4166659 L5.52083321,11.5833329 C5.34027669,11.4166662 5.13194551,11.3333329 4.89583326,11.3333329 C4.65972101,11.3333329 4.45138975,11.4166662 4.27083331,11.5833329 C4.09027687,11.7638902 4,11.9722208 4,12.2083328 C4,12.4444448 4.09027687,12.6527754 4.27083331,12.8333328 L8.70833161,17.2916657 C8.8055556,17.3749995 8.89930493,17.4374988 8.98958225,17.4791657 C9.07986224,17.5208326 9.19444357,17.5416657 9.33333422,17.5416657 C9.47222221,17.5416657 9.58680353,17.5208326 9.67708353,17.4791657 C9.76736085,17.4374988 9.86111018,17.3749995 9.9583315,17.2916657 L19.7291654,7.49999988 C19.9097227,7.31944256 20,7.11111191 20,6.87499993 C20,6.63888795 19.9097227,6.4305573 19.7291654,6.24999998 Z" />
</svg>
