<?xml version="1.0" encoding="UTF-8"?>
<svg width="32px" height="32px" viewBox="0 0 32 32" version="1.1" xmlns="http://www.w3.org/2000/svg" xmlns:xlink="http://www.w3.org/1999/xlink">
    <!-- Generator: Sketch 54.1 (76490) - https://sketchapp.com -->
    <title>02__elements / icons / cron</title>
    <desc>Created with Sketch.</desc>
    <g id="02__elements-/-icons-/-cron" stroke="none" stroke-width="1" fill="none" fill-rule="evenodd">
        <rect id="Rectangle" fill="#45D3C2" x="0" y="0" width="32" height="32" rx="16"></rect>
        <path d="M16,27 C9.92486775,27 5,22.0751322 5,16 C5,9.92486775 9.92486775,5 16,5 C22.0751322,5 27,9.92486775 27,16 C27,22.0751322 22.0751322,27 16,27 Z M16,25 C20.9705627,25 25,20.9705627 25,16 C25,11.0294373 20.9705627,7 16,7 C11.0294373,7 7,11.0294373 7,16 C7,20.9705627 11.0294373,25 16,25 Z" id="Oval" fill="#FFFFFF" fill-rule="nonzero"></path>
        <path d="M20.4472136,17.1055728 C20.9411921,17.3525621 21.1414164,17.9532351 20.8944272,18.4472136 C20.6474379,18.9411921 20.0467649,19.1414164 19.5527864,18.8944272 L15.5527864,16.8944272 C15.2140024,16.7250352 15,16.3787721 15,16 L15,10 C15,9.44771525 15.4477153,9 16,9 C16.5522847,9 17,9.44771525 17,10 L17,15.381966 L20.4472136,17.1055728 Z" id="Path" fill="#FFFFFF" fill-rule="nonzero"></path>
    </g>
</svg>