<?xml version="1.0" encoding="UTF-8"?>
<svg width="15px" height="16px" viewBox="0 0 15 16" version="1.1" xmlns="http://www.w3.org/2000/svg" xmlns:xlink="http://www.w3.org/1999/xlink">
    <!-- Generator: sketchtool 53 (72520) - https://sketchapp.com -->
    <title>1D52C37C-7237-4A8C-BABB-A7A170771C5D</title>
    <desc>Created with sketchtool.</desc>
    <g id="Page-1" stroke="none" stroke-width="1" fill="none" fill-rule="evenodd">
        <g id="0.1__DSP__Landing--logged-in--light" transform="translate(-1210.000000, -31.000000)" fill="#A1A8B3">
            <g id="03__components-/-navigation-/-navbar--logged-out">
                <path d="M1222.86458,42.8059783 C1223.34838,42.8059783 1223.81018,42.7415769 1224.25,42.6127717 C1223.94213,43.0850567 1223.67824,43.471466 1223.45833,43.7720109 C1221.96296,45.5323459 1220.02779,46.4125 1217.65278,46.4125 C1215.54165,46.4125 1213.73843,45.6933497 1212.24306,44.2550272 C1210.74768,42.8167047 1210,41.0671319 1210,39.00625 C1210,37.3317852 1210.49479,35.8398146 1211.48438,34.530301 C1212.47396,33.2207832 1213.76041,32.3298941 1215.34375,31.8576087 C1215.6956,31.7717405 1216.1794,31.6858682 1216.79514,31.6 C1216.44328,32.1152215 1216.20139,32.5016304 1216.06944,32.7592391 C1215.58565,33.7038098 1215.34375,34.7127662 1215.34375,35.7861413 C1215.34375,37.7182148 1216.04745,39.3711888 1217.45486,40.7451087 C1218.86228,42.1190286 1220.55555,42.8059783 1222.53472,42.8059783 L1222.86458,42.8059783 Z" id="icon-darkmode"></path>
            </g>
        </g>
    </g>
</svg>