<?xml version="1.0" encoding="UTF-8"?>
<svg width="15px" height="16px" viewBox="0 0 15 16" version="1.1" xmlns="http://www.w3.org/2000/svg" xmlns:xlink="http://www.w3.org/1999/xlink">
    <!-- Generator: sketchtool 53 (72520) - https://sketchapp.com -->
    <title>EDEB6607-C489-4500-A34E-201DE9DEED6D</title>
    <desc>Created with sketchtool.</desc>
    <g id="Page-1" stroke="none" stroke-width="1" fill="none" fill-rule="evenodd">
        <g id="0.1__DSP__Landing--logged-in--light" transform="translate(-1143.000000, -32.000000)" fill="#A1A8B3">
            <g id="03__components-/-navigation-/-navbar--logged-out">
                <path d="M1152.84375,46.4742187 L1148.15625,46.4742187 C1148.0293,46.4742187 1147.91943,46.5200251 1147.82666,46.6116395 C1147.73389,46.7032537 1147.6875,46.8117425 1147.6875,46.9371094 C1147.6875,47.0624763 1147.73389,47.1709651 1147.82666,47.2625793 C1147.91943,47.3541936 1148.0293,47.4 1148.15625,47.4 L1152.84375,47.4 C1152.9707,47.4 1153.08057,47.3541936 1153.17334,47.2625793 C1153.26611,47.1709651 1153.3125,47.0624763 1153.3125,46.9371094 C1153.3125,46.8117425 1153.26611,46.7032537 1153.17334,46.6116395 C1153.08057,46.5200251 1152.9707,46.4742187 1152.84375,46.4742187 Z M1157.75098,41.8453125 C1157.8291,41.5463611 1157.89014,41.2425919 1157.93408,40.9339957 C1157.97803,40.6254013 1158,40.3119892 1158,39.99375 C1158,38.9715283 1157.80469,38.0095934 1157.41406,37.1079158 C1157.02344,36.20624 1156.48877,35.420298 1155.81006,34.7500676 C1155.13134,34.0798372 1154.33545,33.5518567 1153.42236,33.1661133 C1152.50927,32.7803699 1151.53516,32.5875 1150.5,32.5875 C1149.46484,32.5875 1148.49073,32.7803699 1147.57764,33.1661133 C1146.66455,33.5518567 1145.86866,34.0798372 1145.18994,34.7500676 C1144.51123,35.420298 1143.97656,36.20624 1143.58594,37.1079158 C1143.19531,38.0095934 1143,38.9715283 1143,39.99375 C1143,40.3119892 1143.02197,40.6254013 1143.06592,40.9339957 C1143.10986,41.2425919 1143.1709,41.5463611 1143.24902,41.8453125 L1157.75098,41.8453125 Z M1156.125,44.6226562 L1144.875,44.6226562 C1144.74805,44.6226562 1144.63818,44.6684621 1144.54541,44.7600774 C1144.45264,44.8516908 1144.40625,44.9601794 1144.40625,45.0855469 C1144.40625,45.2109143 1144.45264,45.3194029 1144.54541,45.4110164 C1144.63818,45.5026317 1144.74805,45.5484375 1144.875,45.5484375 L1156.125,45.5484375 C1156.25195,45.5484375 1156.36182,45.5026317 1156.45459,45.4110164 C1156.54736,45.3194029 1156.59375,45.2109143 1156.59375,45.0855469 C1156.59375,44.9601794 1156.54736,44.8516908 1156.45459,44.7600774 C1156.36182,44.6684621 1156.25195,44.6226562 1156.125,44.6226562 Z M1157.53125,42.7710937 L1143.46875,42.7710937 C1143.3418,42.7710937 1143.23193,42.8168996 1143.13916,42.9085149 C1143.04639,43.0001283 1143,43.1086169 1143,43.2339844 C1143,43.3593518 1143.04639,43.4678404 1143.13916,43.5594539 C1143.23193,43.6510692 1143.3418,43.696875 1143.46875,43.696875 L1157.53125,43.696875 C1157.6582,43.696875 1157.76807,43.6510692 1157.86084,43.5594539 C1157.95361,43.4678404 1158,43.3593518 1158,43.2339844 C1158,43.1086169 1157.95361,43.0001283 1157.86084,42.9085149 C1157.76807,42.8168996 1157.6582,42.7710937 1157.53125,42.7710937 Z" id="icon-lightmode"></path>
            </g>
        </g>
    </g>
</svg>