<?xml version="1.0" encoding="UTF-8"?>
<svg width="32px" height="32px" viewBox="0 0 32 32" version="1.1" xmlns="http://www.w3.org/2000/svg" xmlns:xlink="http://www.w3.org/1999/xlink">
    <!-- Generator: Sketch 54.1 (76490) - https://sketchapp.com -->
    <title>02__elements / icons / ifp</title>
    <desc>Created with Sketch.</desc>
    <g id="02__elements-/-icons-/-ifp" stroke="none" stroke-width="1" fill="none" fill-rule="evenodd">
        <rect id="Rectangle" fill="#7D69FF" x="0" y="0" width="32" height="32" rx="16"></rect>
        <path d="M15.5572862,6.10336605 L7.55507246,10.1044695 C7.21524362,10.2733345 7.00027383,10.6199975 7.0000726,10.9989389 L7.00004839,20.5258981 C6.99740272,20.906055 7.21054459,21.2548326 7.5472862,21.4245117 L15.5475726,25.4246549 C15.8292566,25.5656097 16.1608886,25.5656097 16.442859,25.4245117 L24.4450727,21.4234082 C24.7849016,21.2545432 24.9998714,20.9078802 25.0000726,20.5289389 L25.0000727,10.9994695 C24.9998714,10.6199975 24.7849016,10.2733345 24.442859,10.1033661 L16.4441545,6.10401382 C16.1640373,5.96517702 15.8350854,5.96532769 15.5572862,6.10336605 Z M17.3350726,4.31340829 L25.3350725,8.31340822 C26.354559,8.82000324 26.9994684,9.85999226 27.0000726,10.9989389 L27.0000725,20.5294695 C26.9994684,21.6678855 26.354559,22.7078745 25.3372862,23.2133661 L17.3375726,27.2132228 C16.4925207,27.6360871 15.4976245,27.6360871 14.652859,27.2133661 L6.65009682,23.2119796 C5.63158543,22.698783 4.99215981,21.6524502 5.0000726,20.5189389 L5.00007274,10.9984082 C5.00067683,9.85999226 5.64558623,8.82000324 6.66285901,8.31451167 L14.6650726,4.31340829 C15.5060215,3.89553057 16.4941237,3.89553057 17.3350726,4.31340829 Z" id="Path" fill="#FFFFFF" fill-rule="nonzero"></path>
        <path d="M25.232859,9.02451167 C25.7268375,8.77752242 26.3275105,8.97774677 26.5744998,9.47172527 C26.821489,9.96570376 26.6212647,10.5663768 26.1272862,10.8133661 L16.4472862,15.6533661 C16.1657587,15.7941298 15.8343865,15.7941298 15.552859,15.6533661 L5.87285901,10.8133661 C5.37888051,10.5663768 5.17865616,9.96570376 5.42564541,9.47172527 C5.67263466,8.97774677 6.2733077,8.77752242 6.7672862,9.02451167 L16.0000726,13.6409049 L25.232859,9.02451167 Z" id="Path" fill="#FFFFFF" fill-rule="nonzero"></path>
        <path d="M17.0000726,26.5189389 C17.0000726,27.0712236 16.5523574,27.5189389 16.0000726,27.5189389 C15.4477879,27.5189389 15.0000726,27.0712236 15.0000726,26.5189389 L15.0000726,14.7589389 C15.0000726,14.2066541 15.4477879,13.7589389 16.0000726,13.7589389 C16.5523574,13.7589389 17.0000726,14.2066541 17.0000726,14.7589389 L17.0000726,26.5189389 Z" id="Path" fill="#FFFFFF" fill-rule="nonzero"></path>
    </g>
</svg>