<svg xmlns="http://www.w3.org/2000/svg" data-name="Layer 1" width="162.47328186035156" height="162.47328186035156"><rect id="backgroundrect" width="100%" height="100%" x="0" y="0" fill="none" stroke="none" class="" style=""/><defs><style>.cls-1{fill:#fff;}</style></defs><title>LiquidApps_TMwhite</title><g class="currentLayer" style=""><title>Layer 1</title><path class="cls-1" d="M99.53297659873962,80.84290034294128 a18.19,18.19 0 0 0 -36.38,0 h0 A18.2,18.2 0 0 0 81.31297659873962,99.02290034294128 h18.18 V80.86290034294129 h0 z" id="svg_1"/><path class="cls-1" d="M161.43297636032105,161.61625893592836 V81.68625893592835 a79.84,79.84 0 0 0 -36.79,-67.27 l-0.11000000000000006,28.24 l-0.13,33.89 l0.3100000000000002,48.3 H84.20297636032105 c-0.9400000000000004,0.06000000000000004 -1.8900000000000001,0.11000000000000006 -2.85,0.11000000000000006 a43.33,43.33 0 1 1 18.18,-82.66 l0.1500000000000001,-38.43 A79.92,79.92 0 1 0 81.42297636032104,161.60625893592834 h80 z" id="svg_2"/></g></svg>