<?xml version="1.0" encoding="UTF-8"?>
<svg width="19px" height="18px" viewBox="0 0 19 18" version="1.1" xmlns="http://www.w3.org/2000/svg" xmlns:xlink="http://www.w3.org/1999/xlink">
    <!-- Generator: Sketch 54.1 (76490) - https://sketchapp.com -->
    <title>Fill 1</title>
    <desc>Created with Sketch.</desc>
    <g id="Symbols" stroke="none" stroke-width="1" fill="none" fill-rule="evenodd">
        <g id="03__components-/-search-/search-complex" transform="translate(-20.000000, -15.000000)" fill="#8CA0C2">
            <path d="M37.9126705,31.4595544 L33.8232139,27.4079728 C34.3202001,26.7889774 34.7177825,26.0644814 35.0159721,25.234466 C35.3141643,24.4044506 35.4632577,23.5392783 35.4632577,22.6389193 C35.4632577,21.5838169 35.2573672,20.5920326 34.845578,19.6635394 C34.4479902,18.7350463 33.8977674,17.926145 33.194888,17.2368087 C32.4920085,16.5474751 31.6719961,15.9988286 30.7348235,15.5908558 C29.797651,15.1969474 28.7965956,15 27.7316302,15 C26.6666621,15 25.6656068,15.1969474 24.7284342,15.5908558 C23.7912616,15.9988286 22.9712492,16.5474751 22.2683703,17.2368087 C21.5654917,17.926145 21.0152665,18.7350463 20.6176783,19.6635394 C20.2058907,20.5920326 20,21.5838169 20,22.6389193 C20,23.7080943 20.2058907,24.7069121 20.6176783,25.6354053 C21.0152665,26.5638957 21.5654917,27.372797 22.2683703,28.0621333 C22.9712492,28.7514696 23.7912616,29.3001161 24.7284342,29.7080889 C25.6656068,30.1019945 26.6666621,30.2989447 27.7316302,30.2989447 C28.6404002,30.2989447 29.4994641,30.1512321 30.3088385,29.8558042 C31.1182128,29.5603735 31.8636799,29.1664732 32.5452587,28.6740925 L36.6347153,32.7256741 C36.7341136,32.8241505 36.8441582,32.8944898 36.9648544,32.936694 C37.0855506,32.9788982 37.1884959,33 37.2736956,33 C37.3588926,33 37.4618379,32.9788982 37.5825341,32.936694 C37.7032303,32.8944898 37.8132749,32.8241505 37.9126705,32.7256741 C38.0972658,32.5427891 38.1895621,32.3317713 38.1895621,32.0926142 C38.1895621,31.8534571 38.0972658,31.6424393 37.9126705,31.4595544 Z M21.8317358,22.6389193 C21.8317358,21.8370408 21.9808292,21.0773771 22.2790201,20.3599039 C22.5914107,19.6565032 23.0138423,19.0375159 23.546325,18.5029284 C24.0788104,17.9683436 24.7071308,17.5533427 25.4313109,17.2579121 C26.1412869,16.9484143 26.9080546,16.7936682 27.7316302,16.7936682 C28.5552032,16.7936682 29.3219708,16.9484143 30.0319496,17.2579121 C30.7561269,17.5533427 31.3844474,17.9683436 31.9169328,18.5029284 C32.4494155,19.0375159 32.8718482,19.6565032 33.184239,20.3599039 C33.4824286,21.0773771 33.631522,21.8370408 33.631522,22.6389193 C33.631522,23.4548676 33.4824286,24.214534 33.184239,24.9179347 C32.8860467,25.6213382 32.4600671,26.247359 31.9062838,26.7960136 C31.9062838,26.7960136 31.9062838,26.7960136 31.9062838,26.7960136 C31.9062838,26.7960136 31.9062838,26.7960136 31.9062838,26.7960136 C31.3666991,27.3306011 30.7419256,27.7491188 30.0319496,28.051583 C29.3219708,28.3540444 28.5552032,28.5052765 27.7316302,28.5052765 C26.9080546,28.5052765 26.1412869,28.3505277 25.4313109,28.0410299 C24.7071308,27.7315349 24.0788104,27.3130145 23.546325,26.7854633 C23.0138423,26.2579094 22.5914107,25.635408 22.2790201,24.9179347 C21.9808292,24.214534 21.8317358,23.4548676 21.8317358,22.6389193 Z" id="Fill-1"></path>
        </g>
    </g>
</svg>