<?xml version="1.0" encoding="UTF-8"?>
<svg width="24px" height="24px" viewBox="0 0 24 24" version="1.1" xmlns="http://www.w3.org/2000/svg" xmlns:xlink="http://www.w3.org/1999/xlink">
    <!-- Generator: Sketch 53 (72520) - https://sketchapp.com -->
    <title>02__assets / icons / staked</title>
    <desc>Created with Sketch.</desc>
    <g id="02__assets-/-icons-/-staked" stroke="none" stroke-width="1" fill="none" fill-rule="evenodd">
        <rect id="Rectangle" fill="#5660FF" x="1" y="1" width="22" height="22" rx="11"></rect>
        <path d="M7.8203125,14.1289062 L9.66601562,14.1289062 C9.78320312,15.0737305 10.7207031,15.6816406 12.0610352,15.6816406 C13.3061523,15.6816406 14.2070312,15.0444336 14.2070312,14.1582031 C14.2070312,13.3964844 13.628418,12.949707 12.2734375,12.6347656 L10.9038086,12.3198242 C8.98486328,11.8876953 8.08398438,10.9355469 8.08398438,9.36083984 C8.08398438,7.44189453 9.65136719,6.16748047 12.0170898,6.16748047 C14.2363281,6.16748047 15.840332,7.44189453 15.9282227,9.25830078 L14.1191406,9.25830078 C13.9873047,8.328125 13.1669922,7.7421875 12.0097656,7.7421875 C10.7939453,7.7421875 9.98828125,8.328125 9.98828125,9.22900391 C9.98828125,9.93945312 10.5229492,10.3569336 11.8339844,10.6572266 L13.0498047,10.9355469 C15.1958008,11.4189453 16.0966797,12.3125 16.0966797,13.9238281 C16.0966797,15.9819336 14.5073242,17.2636719 11.9438477,17.2636719 C9.51953125,17.2636719 7.91552734,16.0478516 7.8203125,14.1289062 Z" id="S" fill="#FFFFFF" fill-rule="nonzero"></path>
    </g>
</svg>