<?xml version="1.0" encoding="UTF-8"?>
<svg width="48px" height="48px" viewBox="0 0 48 48" version="1.1" xmlns="http://www.w3.org/2000/svg" xmlns:xlink="http://www.w3.org/1999/xlink">
    <!-- Generator: Sketch 58 (84663) - https://sketch.com -->
    <title>emanate</title>
    <desc>Created with Sketch.</desc>
    <g id="emanate" stroke="none" stroke-width="1" fill="none" fill-rule="evenodd">
        <g id="Group-2">
            <circle id="Oval" fill="#070D0E" cx="24" cy="24" r="22.6285714"></circle>
            <g id="Group" fill="#70FAF7">
                <path d="M24,2.12031626 C36.0882778,2.12031626 45.887934,11.9199725 45.887934,24.0082503 C45.887934,36.096528 36.0882778,45.8961843 24,45.8961843 C11.9117222,45.8961843 2.112066,36.096528 2.112066,24.0082503 C2.12114129,11.9224476 11.9141973,2.12609144 24,2.112066 L24,2.12031626 Z M24,0 C10.7451358,0 -3.55271368e-15,10.7451358 -3.55271368e-15,24 C-3.55271368e-15,37.2548642 10.7451358,48 24,48 C37.2548642,48 48,37.2548642 48,24 C47.9818494,10.752561 37.247439,0.0181505672 24,0 L24,0 Z" id="Fill-1"></path>
                <polygon id="Fill-18" points="13.5481884 15.1901074 13.5481884 22.6698789 15.570527 22.6698789 15.570527 19.4936503 18.1683277 21.4109074 20.7743493 19.4936503 20.7743493 28.3731017 13.5481884 24.068736 13.5481884 32.2973074 15.570527 32.2973074 15.570527 28.1912503 22.7884669 32.5030217 22.7884669 15.1901074 18.1683277 18.884736"></polygon>
                <path d="M30.1545473,29.9027109 C28.5342102,29.8533394 27.2468191,28.5219566 27.2525545,26.9001051 C27.2533958,25.2947109 28.5539404,23.9954194 30.1561915,23.9970636 C31.7576206,23.9987109 33.0548767,25.2963566 33.0565209,26.9001051 C33.039257,28.5063223 31.7592647,29.8138423 30.1545473,29.861568 L30.1545473,29.9027109 Z M30.1545473,17.3952823 C31.261901,17.4125623 32.1464686,18.3251109 32.1292047,19.4334994 C32.113585,20.461248 31.3252018,21.3112594 30.3025233,21.4025966 L30.1545473,21.4025966 C29.0373286,21.4025966 28.1322088,20.4966309 28.1322088,19.378368 C28.1322088,18.260928 29.0373286,17.3541394 30.1545473,17.3541394 L30.1545473,17.3952823 Z M34.0430275,23.1552823 L33.9690395,23.064768 C33.5538847,22.7257509 33.492228,22.114368 33.8309286,21.6988251 C33.8333949,21.6955337 33.835039,21.6930651 33.8375053,21.6905966 L33.8868306,21.6000823 C35.111743,19.5322423 34.4302314,16.8620709 32.3643221,15.6360137 C30.2984129,14.4091337 27.6307346,15.0912823 26.4058222,17.1591223 C25.5944206,18.5283566 25.5944206,20.2316709 26.4058222,21.6000823 L26.4798102,21.7317394 C26.8226213,22.1439909 26.7675413,22.7553737 26.3556748,23.099328 C26.3532085,23.1017966 26.3507423,23.1034423 26.348276,23.1059109 C25.265585,24.0941623 24.64573,25.4905509 24.6383312,26.9568823 C24.6383312,30.0244937 27.1226837,32.511168 30.1874309,32.511168 C33.2521781,32.511168 35.7365305,30.0244937 35.7365305,26.9568823 C35.703647,25.5135909 35.093657,24.1435337 34.0430275,23.1552823 L34.0430275,23.1552823 Z" id="Fill-20"></path>
            </g>
        </g>
    </g>
</svg>