<svg xmlns="http://www.w3.org/2000/svg" id="Layer_1" data-name="Layer 1" viewBox="0 0 58.19 58.19"><defs><style>.cls-1{fill:#70faf7;}</style></defs><title>MN8 Icon</title><path class="cls-1" d="M420.07,268.32a29.09,29.09,0,1,0,29.09,29.09A29.13,29.13,0,0,0,420.07,268.32Zm0,2.57a26.53,26.53,0,1,1-26.53,26.53A26.56,26.56,0,0,1,420.07,270.88Z" transform="translate(-390.98 -268.32)"/><polygon class="cls-1" points="16.48 18.46 16.48 27.55 18.94 27.55 18.94 23.69 22.1 26.02 25.27 23.69 25.27 34.48 16.48 29.25 16.48 39.25 18.94 39.25 18.94 34.26 27.72 39.5 27.72 18.46 22.1 22.95 16.48 18.46"/><path class="cls-1" d="M432.39,296.46l-0.09-.11a1.18,1.18,0,0,1-.16-1.67l0.06-.11a5.29,5.29,0,1,0-9.1,0l0.09,0.16a1.18,1.18,0,0,1-.16,1.67l0,0a6.38,6.38,0,0,0-2.08,4.68,6.75,6.75,0,0,0,13.5,0A6.54,6.54,0,0,0,432.39,296.46Zm-4.73-7a2.44,2.44,0,0,1,.18,4.87h-0.18A2.44,2.44,0,1,1,427.66,289.41Zm0,15.2a3.64,3.64,0,0,1-3.53-3.65,3.53,3.53,0,0,1,7.06,0A3.64,3.64,0,0,1,427.66,304.61Z" transform="translate(-390.98 -268.32)"/></svg>