<?xml version="1.0" encoding="UTF-8"?>
<svg width="16px" height="13px" viewBox="0 0 16 13" version="1.1" xmlns="http://www.w3.org/2000/svg" xmlns:xlink="http://www.w3.org/1999/xlink">
    <!-- Generator: sketchtool 53 (72520) - https://sketchapp.com -->
    <title>4C0BF34D-ED54-445D-BB99-981AD271CE9E</title>
    <desc>Created with sketchtool.</desc>
    <g id="Page-1" stroke="none" stroke-width="1" fill="none" fill-rule="evenodd">
        <g id="0.1__DSP__Landing--logged-in(sort-filter)" transform="translate(-1224.000000, -254.000000)" fill="#414DFF">
            <g id="03__components-/-airHODL-card" transform="translate(1041.000000, 144.000000)">
                <g id="02__assets-/-icon-refresh" transform="translate(179.000000, 104.000000)">
                    <path d="M4.66473828,11.85 L8.62225088,11.85 C8.8180646,11.85 8.97523124,11.7897683 9.0937508,11.669305 C9.21227035,11.5488398 9.27152815,11.3932436 9.27152815,11.2025087 C9.27152815,11.0117739 9.21227035,10.8561777 9.0937508,10.7357125 C8.97523124,10.6152492 8.8180646,10.5550175 8.62225088,10.5550175 L6.30339444,10.5550175 L8.15847801,8.82335839 C8.41612983,8.57239188 8.72015576,8.33899566 9.07056176,8.12316589 C9.42096775,7.90733418 9.77652247,7.73416962 10.1372338,7.60366642 C10.7968244,7.38281766 11.4744374,7.2874512 12.1700967,7.31756702 C12.865758,7.34768285 13.527913,7.50829995 14.1565816,7.79942026 C14.7852521,8.09054057 15.3366185,8.48706338 15.8106987,8.98899448 C16.2847789,9.4909275 16.635179,10.0781813 16.8619127,10.7507713 C16.9237489,10.9113904 17.0396901,11.0318518 17.2097404,11.1121613 C17.3797907,11.1924708 17.5472627,11.2025087 17.7121604,11.1422771 C17.877056,11.0720055 18.0007283,10.9540537 18.0831771,10.7884156 C18.1656239,10.6227776 18.1759313,10.459653 18.1140932,10.2990339 C17.9698082,9.89748828 17.7843019,9.51602435 17.5575681,9.15463249 C17.3411417,8.8032786 17.0912228,8.47200836 16.8078057,8.16081019 C16.5243885,7.84961202 16.2074828,7.56853354 15.8570768,7.31756702 C15.5169762,7.05656254 15.1459634,6.8306948 14.7440267,6.63995995 C14.3523953,6.44922701 13.9504645,6.29864788 13.5382204,6.18822446 C13.1156729,6.08783709 12.6931294,6.02760543 12.2705819,6.0075295 C11.8480325,5.98745164 11.4203363,6.00752757 10.9874814,6.06776115 C10.564932,6.13803077 10.1475431,6.24343521 9.73530103,6.38397638 C9.27152618,6.57471123 8.83094828,6.79806756 8.41355349,7.05405305 C7.99615672,7.31003855 7.62256762,7.59864744 7.29277235,7.91988357 L5.31401753,9.72683321 L5.31401753,7.34768285 C5.31401753,7.15694799 5.25475854,7.0013518 5.13623879,6.88088656 C5.01771883,6.76042325 4.86055358,6.7001916 4.66473828,6.7001916 C4.45861683,6.7001916 4.2962987,6.76042325 4.17777884,6.88088656 C4.05925903,7.0013518 4,7.15694799 4,7.34768285 L4,11.2025087 C4,11.2025087 4,11.2125467 4,11.2326246 C4,11.2527024 4,11.2627404 4,11.2627404 C4,11.2928562 4,11.3229721 4,11.3530879 C4,11.3832037 4,11.3982607 4,11.3982607 C4,11.4283784 4.01030592,11.4484544 4.03091806,11.4584923 C4.0515302,11.4685322 4.06183612,11.4886081 4.06183612,11.518724 C4.06183612,11.518724 4.0644126,11.5312734 4.06956563,11.5563702 C4.07471867,11.581467 4.09790698,11.5940145 4.13913127,11.5940145 C4.13913127,11.5940145 4.13913127,11.5940145 4.13913127,11.5940145 C4.17004949,11.6241303 4.20096719,11.6517367 4.23188545,11.6768335 C4.2628037,11.7019304 4.29372137,11.7144778 4.32463962,11.7144778 C4.32463962,11.7144778 4.32463962,11.7144778 4.32463962,11.7144778 C4.39678209,11.7847494 4.46119416,11.8249032 4.5178776,11.8349411 C4.57456084,11.8449791 4.62351407,11.85 4.66473828,11.85 Z M19.8616254,13.6679687 C19.8616254,13.6375 19.8616254,13.6171868 19.8616254,13.6070312 C19.8616254,13.5968756 19.8616254,13.5765625 19.8616254,13.5460937 C19.8616254,13.5054694 19.851376,13.4800784 19.8308753,13.4699209 C19.8103745,13.4597653 19.8001251,13.4394541 19.8001251,13.4089834 C19.8001251,13.4089834 19.7975628,13.3988278 19.7924381,13.3785166 C19.7873134,13.3582034 19.7642503,13.3480459 19.7232508,13.3480459 C19.7232508,13.3480459 19.7232508,13.3480459 19.7232508,13.3480459 C19.6924987,13.3175771 19.6719999,13.2998048 19.6617505,13.294727 C19.6514992,13.2896492 19.6310004,13.2871084 19.6002502,13.2871084 C19.6002502,13.2871084 19.5899989,13.2744139 19.5694981,13.2490229 C19.5489994,13.223632 19.53875,13.2109375 19.53875,13.2109375 C19.53875,13.2109375 19.5259363,13.2109375 19.5003108,13.2109375 C19.4746854,13.2109375 19.4618737,13.2109375 19.4618737,13.2109375 C19.4618737,13.2109375 19.4388106,13.2083986 19.3926864,13.2033208 C19.3465602,13.198243 19.308123,13.1804687 19.2773729,13.15 C19.2773729,13.15 19.2773729,13.15 19.2773729,13.15 L15.3413559,13.15 C15.1363543,13.15 14.9749166,13.2083986 14.8570408,13.3251958 C14.7391649,13.441993 14.680229,13.6019515 14.680229,13.8050791 C14.680229,13.9980472 14.7391649,14.1529298 14.8570408,14.269727 C14.9749166,14.3865242 15.1363543,14.4449209 15.3413559,14.4449209 L17.6322417,14.4449209 L15.7872338,16.2121084 C15.2849783,16.7097679 14.7109811,17.0855456 14.0652263,17.3394531 C13.4194696,17.5933607 12.760911,17.7203125 12.0895288,17.7203125 C11.4181486,17.7203125 10.75959,17.5933607 10.1138333,17.3394531 C9.46807657,17.0855456 8.88895465,16.7097679 8.37644981,16.2121084 C8.12019936,15.9480452 7.88188731,15.6459005 7.66150972,15.3056645 C7.44113409,14.9654285 7.26432231,14.6175797 7.13107042,14.2621084 C7.06957015,14.099609 6.95425863,13.977734 6.78513192,13.8964834 C6.6160052,13.8152347 6.4494428,13.8050771 6.28544078,13.8660166 C6.12144073,13.9269541 5.99844099,14.0412104 5.91644017,14.2087895 C5.83443936,14.3763686 5.82418938,14.5414049 5.88569004,14.7039062 C6.04969147,15.1609394 6.26237769,15.5951148 6.5237548,16.0064458 C6.78513192,16.4177749 7.10031832,16.7859349 7.46932188,17.1109375 C7.79732395,17.4359391 8.14069814,17.7203113 8.49945034,17.9640625 C8.8684539,18.1976575 9.25026526,18.3906242 9.64489426,18.5429688 C10.0395233,18.6953133 10.4418334,18.812109 10.8518365,18.8933594 C11.2720909,18.9644535 11.6974622,19 12.127966,19 C12.5482204,19 12.968469,18.9593754 13.3887234,18.878125 C13.7987265,18.7968745 14.1984743,18.6775398 14.5879766,18.5201171 C14.9774809,18.3626946 15.3516033,18.1671887 15.7103575,17.9335938 C16.0691116,17.6999988 16.4022345,17.4257827 16.7097378,17.1109375 L18.6777463,15.2980459 L18.6777463,17.7050781 C18.6777463,17.8980478 18.7392446,18.0529291 18.8622471,18.1697267 C18.9852476,18.2865241 19.144121,18.3449219 19.3388731,18.3449219 C19.5336253,18.3449219 19.6924987,18.2865241 19.8154992,18.1697267 C19.9385017,18.0529291 20,17.8980478 20,17.7050781 L20,13.8050791 C19.9282503,13.7644528 19.8872508,13.7390618 19.8769995,13.7289062 C19.8667501,13.7187506 19.8616254,13.6984375 19.8616254,13.6679687 Z" id="refresh-icon"></path>
                </g>
            </g>
        </g>
    </g>
</svg>