<?xml version="1.0" encoding="UTF-8"?>
<svg width="13px" height="24px" viewBox="0 0 13 24" version="1.1" xmlns="http://www.w3.org/2000/svg" xmlns:xlink="http://www.w3.org/1999/xlink">
    <!-- Generator: sketchtool 53 (72520) - https://sketchapp.com -->
    <title>9FCBD340-C3F1-4D8D-BF3C-F19966587E30</title>
    <desc>Created with sketchtool.</desc>
    <g id="Page-1" stroke="none" stroke-width="1" fill="none" fill-rule="evenodd">
        <g id="0.1__DSP__Landing--logged-in--staked" transform="translate(-849.000000, -1678.000000)" fill="#414DFF">
            <g id="03__components-/-footer-copy-4" transform="translate(0.000000, 1518.000000)">
                <g id="Group-6" transform="translate(571.000000, 156.000000)">
                    <g id="02__assets-/-logos-/-discord-copy-4" transform="translate(270.000000, 1.200000)">
                        <path d="M8.39999978,11.9321348 L11.9300522,11.9321348 L11.9300522,8.66950723 C11.9300522,8.66950723 11.9701672,8.25054264 12.050394,7.41259635 C12.1306242,6.57465006 12.5718764,5.75454487 13.3741645,4.95225682 C14.1942834,4.13213793 15.1614715,3.69088909 16.2757597,3.62848632 C17.3900514,3.56608697 18.7227219,3.60620206 20.2738123,3.74882816 L20.2738123,7.38585182 L17.9739297,7.38585182 C17.9739297,7.38585182 17.7956454,7.40368265 17.4390733,7.43934089 C17.0825012,7.4749957 16.7883319,7.6176218 16.5565585,7.86722602 C16.3426159,8.13465423 16.2222741,8.41990643 16.195533,8.7229963 C16.1687884,9.02608274 16.1554179,9.22219448 16.1554179,9.31133494 L16.1554179,11.9321348 L20.1400999,11.9321348 L19.6319846,15.9702991 L16.1286734,15.9702991 L16.1286734,26.3999993 L11.9300522,26.3999993 L11.9300522,15.9702991 L8.39999978,15.9702991 L8.39999978,11.9321348 Z" id="logo-facebook"></path>
                    </g>
                </g>
            </g>
        </g>
    </g>
</svg>