<?xml version="1.0" encoding="UTF-8"?>
<svg width="51px" height="52px" viewBox="0 0 51 52" version="1.1" xmlns="http://www.w3.org/2000/svg" xmlns:xlink="http://www.w3.org/1999/xlink">
    <!-- Generator: sketchtool 53 (72520) - https://sketchapp.com -->
    <title>815FA2CF-6C60-438D-859C-41577E37BC6D</title>
    <desc>Created with sketchtool.</desc>
    <g id="Page-1" stroke="none" stroke-width="1" fill="none" fill-rule="evenodd">
        <g id="0.1__DSP__Landing--logged-in--selected--signscatter--txsuccessful" transform="translate(-19.000000, -15.000000)">
            <g id="03__components-/-navigation-/-navbar--logged-out">
                <g id="02__asssets-/-logo-maltablock" transform="translate(19.000000, 15.800000)">
                    <g id="Group-7">
                        <polygon id="Fill-1" fill="#414DFF" points="8.15010824 0.000112036357 0.384828696 4.09485411 35.0263394 24.7392332 9.40778753 38.0183423 9.40778753 46.9293406 50.8163249 24.7392332"></polygon>
                        <polygon id="Fill-2" fill="#414DFF" points="2.36965257 19.5594764 9.89128689 24.2786346 -1.92452832e-05 29.7026882 7.15210563 34.266676 25.6008273 24.2786346 10.2134529 15.4027407"></polygon>
                        <polygon id="Fill-3" fill="#6BDDFB" points="7.15208616 34.2666008 6.99100315 51.2544875 50.8163596 27.9092843 50.8163596 24.7392154 9.40782567 46.9293238 9.56890868 35.6214939 25.600806 27.1188677 25.600806 24.2785593"></polygon>
                        <polygon id="Fill-4" fill="#6BDDFB" points="2.36971014 19.5594006 2.36971014 8.15951469 10.3745934 12.7453494 10.3745934 15.4028518"></polygon>
                        <polygon id="Fill-5" fill="#1F2044" points="35.0263769 24.7392526 0.384867162 4.09487291 0.384867162 20.9264686 7.51505213 25.5815793 9.89126724 24.2785964 2.36963322 19.5594382 2.36963322 8.15955201 32.7646712 25.9115263"></polygon>
                        <polygon id="Fill-6" fill="#1F2044" points="0 46.9076635 6.99104146 51.2544875 7.15212448 34.2666011 0 29.7028"></polygon>
                    </g>
                </g>
            </g>
        </g>
    </g>
</svg>