<?xml version="1.0" encoding="UTF-8"?>
<svg width="48px" height="48px" viewBox="0 0 48 48" version="1.1" xmlns="http://www.w3.org/2000/svg" xmlns:xlink="http://www.w3.org/1999/xlink">
    <!-- Generator: Sketch 58 (84663) - https://sketch.com -->
    <title>tulip</title>
    <desc>Created with Sketch.</desc>
    <g id="tulip" stroke="none" stroke-width="1" fill="none" fill-rule="evenodd">
        <circle id="Oval" fill="#FFFFFF" cx="24" cy="24" r="24"></circle>
        <path d="M31.1559231,30.4070621 C29.7147371,32.1186877 27.6921662,33.0858877 25.1343877,33.2892902 C25.2889131,27.2723104 26.7278465,22.9051513 29.3196386,20.6195245 C31.0300052,19.1108402 32.8448903,18.8230325 33.8477287,18.7958199 C34.0200493,20.9825128 34.1558785,26.8445193 31.1559231,30.4070621 M16.8483568,30.4123662 C13.8531317,26.8611236 13.9835548,20.9871251 14.1536228,18.7962812 C15.147451,18.8244162 16.9485955,19.1092259 18.6467983,20.5900058 C21.2597644,22.8684835 22.7106364,27.245559 22.865387,33.2892902 C20.3105369,33.0858877 18.2895427,32.1207633 16.8483568,30.4123662 M23.7391539,15.5197011 C24.9138624,16.288572 26.8722354,17.7322229 27.8768759,19.1020769 C26.0926255,20.7149992 24.7960536,23.0225344 24,26.0090006 C23.2046221,23.0246099 21.9089513,20.7186891 20.1269535,19.1059973 C21.1201059,17.6044621 22.863585,16.1822584 23.7391539,15.5197011 M35.8083543,17.6266011 L35.6966275,16.8595751 L34.9490039,16.7359654 C34.8233112,16.7152101 32.286031,16.3240868 29.5626895,17.8722063 C27.851422,15.5199317 24.3811326,13.4303279 24.2191738,13.3334695 L23.6607649,13 L23.1228543,13.3673699 C22.9852231,13.4614609 20.0544211,15.4800353 18.4420408,17.8749736 C15.7171226,16.3236255 13.1769141,16.7152101 13.0509961,16.7359654 L12.3031472,16.8595751 L12.1916457,17.6266011 C12.1382601,17.9921261 10.9385482,26.6411167 15.2753962,31.7912142 C17.0914077,33.9479271 19.5892681,35.1577342 22.7097353,35.4014944 L22.7097353,37.2464156 L22.7097353,46.1550788 L22.7097353,48 L25.2479166,48 L25.2479166,46.1550788 L25.2479166,37.249183 L25.2479166,35.4042618 C28.3879811,35.1681119 30.9002579,33.9573823 32.7246038,31.7912142 C37.0614518,26.6411167 35.8617399,17.9921261 35.8083543,17.6266011" id="Fill-6" fill="#7165E3"></path>
        <path d="M24.0001121,2 C11.8496215,2 2,11.8970141 2,24.1054648 C2,35.2635493 10.2287637,44.4892394 20.920998,45.9941408 L20.920998,43.0280563 C11.8570227,41.5441127 4.91561536,33.6254648 4.91561536,24.1054648 C4.91561536,13.5317183 13.4767592,4.92957746 24.0001121,4.92957746 C34.5232408,4.92957746 43.0843846,13.5317183 43.0843846,24.1054648 C43.0843846,33.640338 36.1214466,41.5693521 27.0368377,43.0357183 L27.0368377,46 C37.7497056,44.5135775 46,35.2784225 46,24.1054648 C46,11.8970141 36.1501542,2 24.0001121,2" id="Fill-3" fill="#000000"></path>
    </g>
</svg>